# xmcd
#
# Track frame offsets:
#	150
#	17055
#	34117
#	56412
#	71197
#	85747
#	103387
#	120972
#	138317
#	150350
#
# Disc length: 2266 seconds
#
# Revision: 0
# Processed by: cddbd v1.5.2PL0 Copyright (c) Steve Scherf et al.
# Submitted via: EasyCDDAExtractor 10.2.0.1
#
DISCID=7b08d80a
DTITLE=David Patillo - Once More For The Road
DYEAR=1997
DGENRE=Gospel
TTITLE0=Once More For The Road
TTITLE1=I've Got Him
TTITLE2=You're Still Mine
TTITLE3=I Have A Bridge
TTITLE4=The Long Haul
TTITLE5=Since I'm Walking With You
TTITLE6=Hang On To The Cross
TTITLE7=An Altar Alters My Life
TTITLE8=Don't Leave Home Without Him
TTITLE9=Red River
EXTD=
EXTT0=
EXTT1=
EXTT2=
EXTT3=
EXTT4=
EXTT5=
EXTT6=
EXTT7=
EXTT8=
EXTT9=
PLAYORDER=
